<svg width="99" height="69" viewBox="0 0 99 69" fill="none" xmlns="http://www.w3.org/2000/svg">
<g clip-path="url(#clip0_218_516)">
<path d="M0 55.8042L5.19873 44.4347H0V41.7432H8.23904V44.2492L3.04031 55.6187H8.23904V58.2638H0V55.8042Z" fill="#105C14"/>
<path d="M10.6523 41.7432H13.3213V52.3471C13.3213 54.6905 14.2032 55.8045 15.085 55.8045C15.9669 55.8045 16.9418 54.737 16.9418 52.3471V41.7432H19.5874V52.3471C19.5874 56.5468 17.3132 58.4728 15.085 58.4728C12.8569 58.4728 10.6523 56.5239 10.6523 52.3471V41.7432Z" fill="#105C14"/>
<path d="M22.4648 41.7432H27.0602C29.3809 41.7432 30.6574 44.1331 30.6574 46.4997C30.6574 47.9151 30.2398 49.0984 29.5203 49.841C30.4719 50.6995 30.8894 52.1148 30.8894 53.4839C30.8894 55.8274 29.5897 58.2638 27.2457 58.2638H22.4648V41.7432ZM26.8978 48.7274C27.6174 48.7274 28.0117 47.6369 28.0117 46.523C28.0117 45.409 27.6636 44.4115 26.8978 44.4115H25.134V48.7274H26.8978ZM27.1531 55.6187C27.8959 55.6187 28.267 54.5282 28.267 53.4143C28.267 52.3003 27.8494 51.2331 27.1531 51.2331H25.134V55.6184H27.1531V55.6187Z" fill="#105C14"/>
<path d="M35.9952 41.7432H38.5947L42.656 58.2638H39.9174L39.5228 56.6165H35.0204L34.6257 58.2638H31.9336L35.9949 41.7432H35.9952ZM38.8964 53.9711L37.2717 46.5462L35.6702 53.9711H38.8961H38.8964Z" fill="#105C14"/>
<path d="M44.3516 41.7432H47.0437V55.6187H52.0336V58.2638H44.3516V41.7432Z" fill="#105C14"/>
<path d="M54.1445 41.7432H61.7337V44.4347H56.8367V48.6577H60.2252V51.3028H56.8367V55.6187H61.7337V58.2638H54.1445V41.7432Z" fill="#105C14"/>
<path d="M73.5938 58.2638H70.8088L66.7475 47.6366V58.2638H64.125V41.7432H66.9101L70.9949 52.3471V41.7432H73.5941V58.2638H73.5938Z" fill="#105C14"/>
<path d="M86.1348 49.993C86.1348 52.4406 84.1628 54.4121 81.7136 54.4121C79.2644 54.4121 77.3164 52.4406 77.3164 49.993C77.3164 47.5455 79.2884 45.5957 81.7136 45.5957C84.1387 45.5957 86.1348 47.5793 86.1348 49.993Z" fill="#105C14"/>
<path d="M89.5784 41.7432H92.2705V51.3957L96.0072 41.7432H99.001L95.2412 50.9315L98.9081 58.2638H95.891L93.6165 53.6233L92.2703 56.3845V58.264H89.5781V41.7434L89.5784 41.7432Z" fill="#105C14"/>
<path d="M29.4304 68.4295C29.6146 68.61 29.7618 68.6724 29.8833 68.6724C30.0711 68.6724 30.1668 68.4955 30.1668 68.3262C30.1668 67.7557 29.1984 67.8587 29.1984 67.0416C29.1984 66.6552 29.4598 66.3496 29.8281 66.3496C30.0196 66.3496 30.2368 66.4378 30.4688 66.6367L30.2295 66.9053C30.0711 66.7654 29.9275 66.7067 29.8281 66.7067C29.6476 66.7067 29.5595 66.8611 29.5595 67.0416C29.5595 67.5976 30.5242 67.4871 30.5242 68.3262C30.5242 68.6872 30.2701 69.033 29.8836 69.033C29.6846 69.033 29.4416 68.9373 29.1875 68.6908L29.4304 68.4295Z" fill="#FF0000"/>
<path d="M32.6484 66.3799H33.3003C33.7458 66.3799 33.9779 66.8732 33.9779 67.3665C33.9779 67.8598 33.7531 68.3531 33.3003 68.3531H33.0095V69.0012H32.6484V66.3802V66.3799ZM33.293 67.9961C33.5102 67.9961 33.6207 67.6833 33.6207 67.3665C33.6207 67.0498 33.5029 66.7406 33.2784 66.7406H33.0098V67.9958H33.2933L33.293 67.9961Z" fill="#FF0000"/>
<path d="M35.9844 67.6862C35.9844 66.9206 36.6105 66.291 37.3798 66.291C38.1492 66.291 38.7829 66.9206 38.7829 67.6862C38.7829 68.4517 38.1568 69.0889 37.3798 69.0889C36.6029 69.0889 35.9844 68.4629 35.9844 67.6862ZM38.4255 67.6862C38.4255 67.1156 37.9578 66.6481 37.3798 66.6481C36.8019 66.6481 36.3415 67.1156 36.3415 67.6862C36.3415 68.2567 36.8092 68.7316 37.3798 68.7316C37.9505 68.7316 38.4255 68.264 38.4255 67.6862Z" fill="#FF0000"/>
<path d="M40.8987 66.3799H41.5578C42.0034 66.3799 42.2354 66.8732 42.2354 67.3665C42.2354 67.7126 42.1212 68.0585 41.9004 68.2317L42.2354 69.0009H41.845L41.5615 68.3529H41.2595V69.0009H40.8984V66.3799H40.8987ZM41.5506 67.9961C41.7677 67.9961 41.8783 67.6833 41.8783 67.3665C41.8783 67.0498 41.7605 66.7406 41.536 66.7406H41.2598V67.9958H41.5506V67.9961Z" fill="#FF0000"/>
<path d="M44.7619 66.7406H44.25V66.3799H45.6346V66.7406H45.1227V69.0009H44.7619V66.7406Z" fill="#FF0000"/>
<path d="M50.5781 66.3799H50.9428V69.0009H50.5781V66.3799Z" fill="#FF0000"/>
<path d="M53.1953 66.3799H53.5857L54.3 68.2057V66.3799H54.6498V69.0009H54.2594L53.5488 67.1639V69.0009H53.1953V66.3799Z" fill="#FF0000"/>
<path d="M56.9023 66.3799H57.5248C58.0291 66.3799 58.2945 67.0352 58.2945 67.6866C58.2945 68.338 58.0367 69.0009 57.5248 69.0009H56.9023V66.3799ZM57.5357 68.6439C57.7935 68.6439 57.9334 68.169 57.9334 67.6866C57.9334 67.2042 57.7935 66.7406 57.5357 66.7406H57.2634V68.6439H57.5357Z" fill="#FF0000"/>
<path d="M60.4104 66.3799H60.7712V68.0585C60.7712 68.4634 60.9296 68.6733 61.0953 68.6733C61.261 68.6733 61.4376 68.4707 61.4376 68.0585V66.3799H61.7947V68.0585C61.7947 68.7138 61.4412 69.0339 61.095 69.0339C60.7488 69.0339 60.4102 68.7063 60.4102 68.0585V66.3799H60.4104Z" fill="#FF0000"/>
<path d="M64.1297 68.4295C64.3138 68.61 64.461 68.6724 64.5825 68.6724C64.7703 68.6724 64.866 68.4955 64.866 68.3262C64.866 67.7557 63.8976 67.8587 63.8976 67.0416C63.8976 66.6552 64.159 66.3496 64.5274 66.3496C64.7188 66.3496 64.936 66.4378 65.168 66.6367L64.9287 66.9053C64.7703 66.7654 64.6267 66.7067 64.5274 66.7067C64.3468 66.7067 64.2587 66.8611 64.2587 67.0416C64.2587 67.5976 65.2234 67.4871 65.2234 68.3262C65.2234 68.6872 64.9693 69.033 64.5828 69.033C64.3838 69.033 64.1408 68.9373 63.8867 68.6908L64.1297 68.4295Z" fill="#FF0000"/>
<path d="M67.7069 66.7406H67.1953V66.3799H68.5799V66.7406H68.068V69.0009H67.7069V66.7406Z" fill="#FF0000"/>
<path d="M70.7034 66.3799H71.3625C71.8081 66.3799 72.0401 66.8732 72.0401 67.3665C72.0401 67.7126 71.9259 68.0585 71.7051 68.2317L72.0401 69.0009H71.6497L71.3662 68.3529H71.0642V69.0009H70.7031V66.3799H70.7034ZM71.3552 67.9961C71.5724 67.9961 71.683 67.6833 71.683 67.3665C71.683 67.0498 71.5651 66.7406 71.3407 66.7406H71.0645V67.9958H71.3552V67.9961Z" fill="#FF0000"/>
<path d="M74.4975 68.3347L73.9453 66.3799H74.3209L74.678 67.742L75.0315 66.3799H75.4071L74.8549 68.3347V69.0009H74.4978V68.3347H74.4975Z" fill="#FF0000"/>
<path d="M54.8332 17.6318C56.441 17.6318 57.7445 16.3287 57.7445 14.7212C57.7445 13.1137 56.441 11.8105 54.8332 11.8105C53.2253 11.8105 51.9219 13.1137 51.9219 14.7212C51.9219 16.3287 53.2253 17.6318 54.8332 17.6318Z" fill="#FF0000"/>
<path d="M59.216 31.0292C58.1469 32.3564 56.2907 33.2361 54.7114 32.5951C53.8348 32.2383 53.1759 31.468 52.76 30.6179C52.3442 29.7678 52.1418 28.8313 51.9425 27.9056C51.6876 26.7153 51.4315 25.5258 51.1765 24.3355C50.8395 22.7677 50.3875 21.0289 49.0206 20.1875C48.0673 19.601 47.0178 20.0037 46.7225 21.1033C46.6646 21.3177 46.6458 21.541 46.6405 21.7631C46.6055 23.1603 47.0729 24.5171 47.7645 25.713C48.1563 26.3913 48.5862 27.0477 49.0525 27.6793C49.3996 28.1488 49.6444 28.653 49.7256 29.2384C49.8012 29.7933 49.7301 30.3686 49.5275 30.8851C48.9366 32.395 47.3024 33.3022 45.6873 33.4586C43.9909 33.6228 42.0637 32.9104 41.4191 31.3325C41.0603 30.4562 41.151 29.4485 41.4684 28.5557C41.8054 27.6093 42.4205 26.8521 42.8846 25.9769C44.1311 23.6289 43.8717 20.854 43.8717 18.2677V11.8661C43.8717 9.87797 44.05 8.94143 43.0346 7.13522C42.5524 6.27786 41.8728 5.59819 41.6917 4.59281C41.5932 4.04577 41.6162 3.46683 41.7497 2.9363C42.1437 1.38473 43.4393 0.356404 44.767 0.076309C46.1614 -0.218057 47.8029 0.344372 48.4387 1.86741C48.9769 3.16072 48.6867 4.84605 48.1689 6.10745C47.7863 7.03924 47.1854 7.88064 46.9179 8.85944C46.7256 9.56206 46.8115 10.3153 46.8115 11.0395V17.5041C46.9461 17.4744 47.0841 17.4571 47.2241 17.4526C47.825 17.4341 48.4127 17.6529 48.926 17.9646C49.4972 18.3124 49.994 18.7797 50.3749 19.3279C51.1488 20.4396 51.4519 21.8695 52.4172 22.8206C53.1407 23.5338 54.1452 23.8785 55.1301 24.1304C55.8896 24.3251 56.6587 24.4762 57.436 24.5845C58.015 24.6643 58.5468 24.8428 59.0217 25.194C59.4715 25.5267 59.8326 25.9805 60.0615 26.4861C60.7279 27.9644 60.2333 29.7664 59.2165 31.0301L59.216 31.0292Z" fill="#FF0000"/>
</g>
<defs>
<clipPath id="clip0_218_516">
<rect width="99" height="69" fill="white"/>
</clipPath>
</defs>
</svg>
